# xmcd CD database file
#
# Track frame offsets:
#	150
#	8457
#	27420
#	32211
#	50861
#	65439
#	68093
#	83601
#	86269
#	102873
#	108378
#	124326
#	128585
#	142117
#	158063
#	161841
#
# Disc length: 2534 seconds
#
# Revision: 0
# Processed by: cddbd v1.5.2PL0 Copyright (c) Steve Scherf et al.
# Submitted via: CDex 2.06
#
DISCID=d009e410
DTITLE=Glen Campbell - Ghost On The Canvas
DYEAR=2011
DGENRE=Country
TTITLE0=A Better Place
TTITLE1=Ghost On The Canvas
TTITLE2=The Billstown Crossroads
TTITLE3=A Thousand Lifetimes
TTITLE4=It's Your Amazing Grace
TTITLE5=Second Street North
TTITLE6=In My Arms
TTITLE7=May 21st, 1969
TTITLE8=Nothing But The Whole Wide World
TTITLE9=Wild And Waste
TTITLE10=Hold On Hope
TTITLE11=Valley Of The Son
TTITLE12=Any Trouble
TTITLE13=Strong
TTITLE14=The Rest Is Silence
TTITLE15=There's No Me ... Without You
EXTD=YEAR: 2011
EXTT0=
EXTT1=
EXTT2=
EXTT3=
EXTT4=
EXTT5=
EXTT6=
EXTT7=
EXTT8=
EXTT9=
EXTT10=
EXTT11=
EXTT12=
EXTT13=
EXTT14=
EXTT15=
PLAYORDER=
